<svg width="245" height="46" viewBox="0 0 245 46" fill="none" xmlns="http://www.w3.org/2000/svg">
<path d="M0.716063 35V1.976H15.5001L18.5241 13.592C18.6521 14.008 18.8281 14.696 19.0521 15.656C19.3081 16.616 19.5641 17.656 19.8201 18.776C20.1081 19.896 20.3641 20.936 20.5881 21.896H20.9721C21.1321 21.192 21.3241 20.36 21.5481 19.4C21.8041 18.408 22.0601 17.4 22.3161 16.376C22.5721 15.352 22.7961 14.424 22.9881 13.592L26.0121 1.976H40.2681V35H30.1401V23.096C30.1401 21.816 30.1401 20.504 30.1401 19.16C30.1721 17.784 30.1881 16.488 30.1881 15.272C30.2201 14.056 30.2361 13.048 30.2361 12.248H29.8521C29.7561 12.888 29.6121 13.64 29.4201 14.504C29.2601 15.368 29.0841 16.232 28.8921 17.096C28.7001 17.928 28.5081 18.664 28.3161 19.304L24.0441 35H16.1241L11.8041 19.304C11.6441 18.664 11.4521 17.928 11.2281 17.096C11.0361 16.232 10.8601 15.368 10.7001 14.504C10.5401 13.64 10.3961 12.904 10.2681 12.296H9.88406C9.91606 13.096 9.94806 14.104 9.98006 15.32C10.0121 16.536 10.0281 17.816 10.0281 19.16C10.0601 20.504 10.0761 21.816 10.0761 23.096V35H0.716063ZM54.1727 35.576C52.8607 35.576 51.6607 35.448 50.5727 35.192C49.4847 34.968 48.5407 34.584 47.7407 34.04C46.9407 33.464 46.3167 32.728 45.8687 31.832C45.4527 30.904 45.2447 29.784 45.2447 28.472C45.2447 26.584 45.6287 25.048 46.3967 23.864C47.1967 22.68 48.3487 21.768 49.8527 21.128C51.3567 20.488 53.1807 20.056 55.3247 19.832C57.5007 19.576 59.9807 19.448 62.7647 19.448V18.2C62.7647 17.496 62.5887 16.936 62.2367 16.52C61.9167 16.072 61.4847 15.736 60.9407 15.512C60.3967 15.288 59.7727 15.176 59.0687 15.176C58.5247 15.176 57.9647 15.24 57.3887 15.368C56.8127 15.496 56.3327 15.72 55.9487 16.04C55.5967 16.36 55.4207 16.808 55.4207 17.384V17.576H46.0127C45.9807 17.448 45.9647 17.336 45.9647 17.24C45.9647 17.144 45.9647 17.032 45.9647 16.904C45.9647 15.336 46.4607 13.976 47.4527 12.824C48.4767 11.64 49.9647 10.728 51.9167 10.088C53.9007 9.416 56.3327 9.08 59.2127 9.08C61.5487 9.08 63.7087 9.336 65.6927 9.848C67.6767 10.36 69.2767 11.224 70.4927 12.44C71.7087 13.624 72.3167 15.256 72.3167 17.336V27.224C72.3167 27.736 72.4447 28.184 72.7007 28.568C72.9567 28.92 73.3407 29.096 73.8527 29.096H75.5807V34.616C75.1967 34.84 74.5567 35.048 73.6607 35.24C72.7967 35.464 71.7727 35.576 70.5887 35.576C69.3087 35.576 68.1887 35.448 67.2287 35.192C66.2687 34.936 65.4847 34.568 64.8767 34.088C64.3007 33.608 63.9007 33.048 63.6767 32.408H63.3407C62.6687 33.016 61.8847 33.56 60.9887 34.04C60.1247 34.52 59.1327 34.888 58.0127 35.144C56.8927 35.432 55.6127 35.576 54.1727 35.576ZM58.0607 29.624C58.6687 29.624 59.2447 29.544 59.7887 29.384C60.3647 29.192 60.8767 28.952 61.3247 28.664C61.7727 28.344 62.1247 27.976 62.3807 27.56C62.6367 27.112 62.7647 26.632 62.7647 26.12V23.96C60.8767 23.96 59.3407 24.104 58.1567 24.392C57.0047 24.68 56.1567 25.064 55.6127 25.544C55.0687 26.024 54.7967 26.584 54.7967 27.224C54.7967 27.864 54.9567 28.36 55.2767 28.712C55.5967 29.064 55.9967 29.304 56.4767 29.432C56.9887 29.56 57.5167 29.624 58.0607 29.624ZM82.6843 45.08C81.5323 45.08 80.4603 44.808 79.4683 44.264C78.5083 43.72 77.7403 42.968 77.1643 42.008C76.5883 41.08 76.3003 40.04 76.3003 38.888C76.3003 37.576 76.7003 36.424 77.5003 35.432C78.3323 34.44 79.2763 33.704 80.3323 33.224C79.5643 32.68 78.9563 32.024 78.5083 31.256C78.0603 30.488 77.8363 29.656 77.8363 28.76C77.8363 27.48 78.3003 26.344 79.2283 25.352C80.1883 24.328 81.3403 23.656 82.6843 23.336C81.5323 22.6 80.5563 21.72 79.7563 20.696C78.9883 19.64 78.6043 18.504 78.6043 17.288C78.6043 15.176 79.1963 13.528 80.3803 12.344C81.5643 11.16 83.1483 10.328 85.1323 9.848C87.1163 9.336 89.2923 9.08 91.6603 9.08C92.6203 9.08 93.4203 9.112 94.0603 9.176C94.7323 9.208 95.3243 9.272 95.8363 9.368C97.2443 8.504 98.2203 7.656 98.7643 6.824C99.3083 5.992 99.5803 5.352 99.5803 4.904H107.452C107.452 6.28 107.212 7.416 106.732 8.312C106.284 9.208 105.612 9.928 104.716 10.472C103.852 11.016 102.812 11.448 101.596 11.768C102.524 12.472 103.244 13.304 103.756 14.264C104.3 15.192 104.572 16.184 104.572 17.24C104.572 19.128 104.076 20.68 103.084 21.896C102.092 23.08 100.78 23.96 99.1483 24.536C97.5483 25.112 95.8043 25.4 93.9163 25.4H90.2683C89.1803 25.4 88.3963 25.528 87.9163 25.784C87.4683 26.04 87.2443 26.376 87.2443 26.792C87.2443 27.208 87.4363 27.56 87.8203 27.848C88.2363 28.136 89.0523 28.28 90.2683 28.28H98.9083C101.852 28.28 104.012 29.048 105.388 30.584C106.764 32.088 107.452 34.024 107.452 36.392C107.452 38.184 106.956 39.72 105.964 41C104.972 42.312 103.66 43.32 102.028 44.024C100.428 44.728 98.6843 45.08 96.7963 45.08H82.6843ZM87.8683 39.752H95.3563C95.8363 39.752 96.2683 39.656 96.6523 39.464C97.0363 39.272 97.3403 38.984 97.5643 38.6C97.7883 38.248 97.9003 37.832 97.9003 37.352C97.9003 36.616 97.6443 36.04 97.1323 35.624C96.6523 35.208 96.0603 35 95.3563 35H87.8683C87.1643 35 86.5723 35.192 86.0923 35.576C85.6123 35.992 85.3723 36.568 85.3723 37.304C85.3723 38.04 85.6123 38.632 86.0923 39.08C86.5723 39.528 87.1643 39.752 87.8683 39.752ZM91.5643 20.408C92.6843 20.408 93.5803 20.152 94.2523 19.64C94.9243 19.128 95.2603 18.328 95.2603 17.24C95.2603 16.152 94.9243 15.352 94.2523 14.84C93.5803 14.328 92.6843 14.072 91.5643 14.072C90.5723 14.072 89.7243 14.328 89.0203 14.84C88.3163 15.352 87.9643 16.152 87.9643 17.24C87.9643 17.944 88.1083 18.536 88.3963 19.016C88.6843 19.496 89.1003 19.848 89.6443 20.072C90.1883 20.296 90.8283 20.408 91.5643 20.408ZM118.157 35.576C116.845 35.576 115.645 35.448 114.557 35.192C113.469 34.968 112.525 34.584 111.725 34.04C110.925 33.464 110.301 32.728 109.853 31.832C109.437 30.904 109.229 29.784 109.229 28.472C109.229 26.584 109.613 25.048 110.381 23.864C111.181 22.68 112.333 21.768 113.837 21.128C115.341 20.488 117.165 20.056 119.309 19.832C121.485 19.576 123.965 19.448 126.749 19.448V18.2C126.749 17.496 126.573 16.936 126.221 16.52C125.901 16.072 125.469 15.736 124.925 15.512C124.381 15.288 123.757 15.176 123.053 15.176C122.509 15.176 121.949 15.24 121.373 15.368C120.797 15.496 120.317 15.72 119.933 16.04C119.581 16.36 119.405 16.808 119.405 17.384V17.576H109.997C109.965 17.448 109.949 17.336 109.949 17.24C109.949 17.144 109.949 17.032 109.949 16.904C109.949 15.336 110.445 13.976 111.437 12.824C112.461 11.64 113.949 10.728 115.901 10.088C117.885 9.416 120.317 9.08 123.197 9.08C125.533 9.08 127.693 9.336 129.677 9.848C131.661 10.36 133.261 11.224 134.477 12.44C135.693 13.624 136.301 15.256 136.301 17.336V27.224C136.301 27.736 136.429 28.184 136.685 28.568C136.941 28.92 137.325 29.096 137.837 29.096H139.565V34.616C139.181 34.84 138.541 35.048 137.645 35.24C136.781 35.464 135.757 35.576 134.573 35.576C133.293 35.576 132.173 35.448 131.213 35.192C130.253 34.936 129.469 34.568 128.861 34.088C128.285 33.608 127.885 33.048 127.661 32.408H127.325C126.653 33.016 125.869 33.56 124.973 34.04C124.109 34.52 123.117 34.888 121.997 35.144C120.877 35.432 119.597 35.576 118.157 35.576ZM122.045 29.624C122.653 29.624 123.229 29.544 123.773 29.384C124.349 29.192 124.861 28.952 125.309 28.664C125.757 28.344 126.109 27.976 126.365 27.56C126.621 27.112 126.749 26.632 126.749 26.12V23.96C124.861 23.96 123.325 24.104 122.141 24.392C120.989 24.68 120.141 25.064 119.597 25.544C119.053 26.024 118.781 26.584 118.781 27.224C118.781 27.864 118.941 28.36 119.261 28.712C119.581 29.064 119.981 29.304 120.461 29.432C120.973 29.56 121.501 29.624 122.045 29.624ZM140.765 35V31.88L151.421 16.136H141.341V9.656H165.053V12.632L154.301 28.52H165.485V35H140.765ZM169.357 6.68V0.199999H178.909V6.68H169.357ZM169.357 35V9.656H178.909V35H169.357ZM184.685 35V9.656H192.509L193.133 13.496H193.469C194.141 12.504 194.925 11.688 195.821 11.048C196.717 10.376 197.709 9.88 198.797 9.56C199.885 9.24 201.005 9.08 202.157 9.08C204.173 9.08 205.821 9.464 207.101 10.232C208.413 10.968 209.389 12.04 210.029 13.448C210.669 14.856 210.989 16.568 210.989 18.584V35H201.437V19.736C201.437 19.192 201.357 18.712 201.197 18.296C201.069 17.848 200.877 17.464 200.621 17.144C200.365 16.824 200.029 16.584 199.613 16.424C199.229 16.232 198.765 16.136 198.221 16.136C197.421 16.136 196.717 16.328 196.109 16.712C195.533 17.064 195.069 17.544 194.717 18.152C194.397 18.728 194.237 19.384 194.237 20.12V35H184.685ZM230.38 35.576C227.34 35.576 224.7 35.112 222.46 34.184C220.252 33.224 218.54 31.768 217.324 29.816C216.14 27.864 215.548 25.368 215.548 22.328C215.548 19.352 216.14 16.888 217.324 14.936C218.508 12.984 220.156 11.528 222.268 10.568C224.412 9.576 226.924 9.08 229.804 9.08C232.844 9.08 235.42 9.56 237.532 10.52C239.676 11.448 241.308 12.888 242.428 14.84C243.548 16.792 244.108 19.288 244.108 22.328V23.96H225.1C225.1 25.112 225.26 26.104 225.58 26.936C225.932 27.768 226.476 28.408 227.212 28.856C227.98 29.272 228.972 29.48 230.188 29.48C231.052 29.48 231.772 29.384 232.348 29.192C232.956 29 233.436 28.744 233.788 28.424C234.172 28.072 234.444 27.672 234.604 27.224C234.764 26.776 234.844 26.296 234.844 25.784H244.108C244.108 27.288 243.82 28.648 243.244 29.864C242.668 31.08 241.804 32.12 240.652 32.984C239.5 33.816 238.06 34.456 236.332 34.904C234.636 35.352 232.652 35.576 230.38 35.576ZM225.148 19.448H234.46C234.46 18.776 234.364 18.184 234.172 17.672C233.98 17.128 233.692 16.68 233.308 16.328C232.956 15.944 232.508 15.656 231.964 15.464C231.452 15.272 230.86 15.176 230.188 15.176C229.132 15.176 228.252 15.352 227.548 15.704C226.844 16.056 226.3 16.552 225.916 17.192C225.532 17.8 225.276 18.552 225.148 19.448Z" fill="white"/>
</svg>
