<svg width="165" height="25" viewBox="0 0 165 25" fill="none" xmlns="http://www.w3.org/2000/svg">
<path d="M0.368 24V1.984H13.36C14.7467 1.984 15.9627 2.304 17.008 2.944C18.0747 3.56267 18.9067 4.42667 19.504 5.536C20.1013 6.64533 20.4 7.936 20.4 9.408C20.4 10.9227 20.0907 12.2453 19.472 13.376C18.8747 14.4853 18.0427 15.3493 16.976 15.968C15.9307 16.5867 14.7253 16.896 13.36 16.896H7.44V24H0.368ZM7.44 11.744H10.992C11.7387 11.744 12.2933 11.552 12.656 11.168C13.04 10.784 13.232 10.2187 13.232 9.472C13.232 8.96 13.1467 8.544 12.976 8.224C12.8267 7.88267 12.5813 7.62667 12.24 7.456C11.92 7.28533 11.504 7.2 10.992 7.2H7.44V11.744ZM31.5088 24.384C29.4821 24.384 27.7221 24.0747 26.2288 23.456C24.7568 22.816 23.6154 21.8453 22.8048 20.544C22.0154 19.2427 21.6208 17.5787 21.6208 15.552C21.6208 13.568 22.0154 11.9253 22.8048 10.624C23.5941 9.32267 24.6928 8.352 26.1008 7.712C27.5301 7.05067 29.2048 6.72 31.1248 6.72C33.1514 6.72 34.8688 7.04 36.2768 7.68C37.7061 8.29867 38.7941 9.25867 39.5408 10.56C40.2874 11.8613 40.6608 13.5253 40.6608 15.552V16.64H27.9888C27.9888 17.408 28.0954 18.0693 28.3088 18.624C28.5434 19.1787 28.9061 19.6053 29.3968 19.904C29.9088 20.1813 30.5701 20.32 31.3808 20.32C31.9568 20.32 32.4368 20.256 32.8208 20.128C33.2261 20 33.5461 19.8293 33.7808 19.616C34.0368 19.3813 34.2181 19.1147 34.3248 18.816C34.4314 18.5173 34.4848 18.1973 34.4848 17.856H40.6608C40.6608 18.8587 40.4688 19.7653 40.0848 20.576C39.7008 21.3867 39.1248 22.08 38.3568 22.656C37.5888 23.2107 36.6288 23.6373 35.4768 23.936C34.3461 24.2347 33.0234 24.384 31.5088 24.384ZM28.0208 13.632H34.2288C34.2288 13.184 34.1648 12.7893 34.0368 12.448C33.9088 12.0853 33.7168 11.7867 33.4608 11.552C33.2261 11.296 32.9274 11.104 32.5648 10.976C32.2234 10.848 31.8288 10.784 31.3808 10.784C30.6768 10.784 30.0901 10.9013 29.6208 11.136C29.1514 11.3707 28.7888 11.7013 28.5328 12.128C28.2768 12.5333 28.1061 13.0347 28.0208 13.632ZM50.9005 24.384C49.7485 24.384 48.7245 24.256 47.8285 24C46.9538 23.7227 46.2712 23.2533 45.7805 22.592C45.2898 21.9307 45.0445 21.024 45.0445 19.872V11.424H42.6765V7.104H45.3005L46.6765 1.984H51.4125V7.104H54.9965V11.424H51.4125V17.856C51.4125 18.5813 51.5298 19.136 51.7645 19.52C51.9992 19.8827 52.4792 20.064 53.2045 20.064H54.9965V23.808C54.6552 23.9147 54.2285 24.0107 53.7165 24.096C53.2258 24.2027 52.7245 24.2773 52.2125 24.32C51.7218 24.3627 51.2845 24.384 50.9005 24.384ZM64.3193 24.384C62.8259 24.384 61.5459 24.064 60.4793 23.424C59.4126 22.7627 58.5913 21.7813 58.0153 20.48C57.4606 19.1573 57.1833 17.504 57.1833 15.52C57.1833 13.5573 57.4606 11.9253 58.0153 10.624C58.5913 9.32267 59.4126 8.352 60.4793 7.712C61.5459 7.05067 62.8259 6.72 64.3193 6.72C64.9166 6.72 65.4926 6.79467 66.0473 6.944C66.6233 7.072 67.1459 7.28533 67.6153 7.584C68.1059 7.86133 68.5113 8.224 68.8313 8.672H69.0553V0.799999H75.4233V24H70.2393L69.7913 21.6H69.5673C68.9699 22.56 68.2233 23.264 67.3273 23.712C66.4313 24.16 65.4286 24.384 64.3193 24.384ZM66.3033 19.68C66.9646 19.68 67.4979 19.52 67.9033 19.2C68.3299 18.88 68.6393 18.4533 68.8313 17.92C69.0233 17.3653 69.1193 16.7573 69.1193 16.096V15.04C69.1193 14.5493 69.0659 14.0907 68.9593 13.664C68.8526 13.216 68.6819 12.832 68.4473 12.512C68.2339 12.1707 67.9459 11.904 67.5833 11.712C67.2206 11.52 66.7939 11.424 66.3033 11.424C65.6419 11.424 65.1086 11.5627 64.7033 11.84C64.2979 12.1173 63.9993 12.5013 63.8073 12.992C63.6366 13.4827 63.5513 14.0587 63.5513 14.72V16.416C63.5513 17.0773 63.6366 17.6533 63.8073 18.144C63.9993 18.6347 64.2979 19.0187 64.7033 19.296C65.1086 19.552 65.6419 19.68 66.3033 19.68ZM79.295 24V7.104H84.511L84.927 9.664H85.151C85.4283 9.024 85.7803 8.48 86.207 8.032C86.655 7.584 87.167 7.25333 87.743 7.04C88.319 6.80533 88.927 6.688 89.567 6.688C89.9937 6.688 90.3777 6.73067 90.719 6.816C91.0603 6.90133 91.3057 6.98667 91.455 7.072V12.416H89.407C88.7243 12.416 88.1377 12.512 87.647 12.704C87.1777 12.8747 86.7937 13.1413 86.495 13.504C86.2177 13.8453 86.0043 14.272 85.855 14.784C85.727 15.2747 85.663 15.84 85.663 16.48V24H79.295ZM102.321 24.384C100.295 24.384 98.5346 24.0747 97.0413 23.456C95.5693 22.816 94.4279 21.8453 93.6173 20.544C92.8279 19.2427 92.4333 17.5787 92.4333 15.552C92.4333 13.568 92.8279 11.9253 93.6173 10.624C94.4066 9.32267 95.5053 8.352 96.9133 7.712C98.3426 7.05067 100.017 6.72 101.937 6.72C103.964 6.72 105.681 7.04 107.089 7.68C108.519 8.29867 109.607 9.25867 110.353 10.56C111.1 11.8613 111.473 13.5253 111.473 15.552V16.64H98.8013C98.8013 17.408 98.9079 18.0693 99.1213 18.624C99.3559 19.1787 99.7186 19.6053 100.209 19.904C100.721 20.1813 101.383 20.32 102.193 20.32C102.769 20.32 103.249 20.256 103.633 20.128C104.039 20 104.359 19.8293 104.593 19.616C104.849 19.3813 105.031 19.1147 105.137 18.816C105.244 18.5173 105.297 18.1973 105.297 17.856H111.473C111.473 18.8587 111.281 19.7653 110.897 20.576C110.513 21.3867 109.937 22.08 109.169 22.656C108.401 23.2107 107.441 23.6373 106.289 23.936C105.159 24.2347 103.836 24.384 102.321 24.384ZM98.8333 13.632H105.041C105.041 13.184 104.977 12.7893 104.849 12.448C104.721 12.0853 104.529 11.7867 104.273 11.552C104.039 11.296 103.74 11.104 103.377 10.976C103.036 10.848 102.641 10.784 102.193 10.784C101.489 10.784 100.903 10.9013 100.433 11.136C99.9639 11.3707 99.6013 11.7013 99.3453 12.128C99.0893 12.5333 98.9186 13.0347 98.8333 13.632ZM119.537 24.384C118.662 24.384 117.862 24.2987 117.137 24.128C116.412 23.9787 115.782 23.7227 115.249 23.36C114.716 22.976 114.3 22.4853 114.001 21.888C113.724 21.2693 113.585 20.5227 113.585 19.648C113.585 18.3893 113.841 17.3653 114.353 16.576C114.886 15.7867 115.654 15.1787 116.657 14.752C117.66 14.3253 118.876 14.0373 120.305 13.888C121.756 13.7173 123.409 13.632 125.265 13.632V12.8C125.265 12.3307 125.148 11.9573 124.913 11.68C124.7 11.3813 124.412 11.1573 124.049 11.008C123.686 10.8587 123.27 10.784 122.801 10.784C122.438 10.784 122.065 10.8267 121.681 10.912C121.297 10.9973 120.977 11.1467 120.721 11.36C120.486 11.5733 120.369 11.872 120.369 12.256V12.384H114.097C114.076 12.2987 114.065 12.224 114.065 12.16C114.065 12.096 114.065 12.0213 114.065 11.936C114.065 10.8907 114.396 9.984 115.057 9.216C115.74 8.42667 116.732 7.81867 118.033 7.392C119.356 6.944 120.977 6.72 122.897 6.72C124.454 6.72 125.894 6.89067 127.217 7.232C128.54 7.57333 129.606 8.14933 130.417 8.96C131.228 9.74933 131.633 10.8373 131.633 12.224V18.816C131.633 19.1573 131.718 19.456 131.889 19.712C132.06 19.9467 132.316 20.064 132.657 20.064H133.809V23.744C133.553 23.8933 133.126 24.032 132.529 24.16C131.953 24.3093 131.27 24.384 130.481 24.384C129.628 24.384 128.881 24.2987 128.241 24.128C127.601 23.9573 127.078 23.712 126.673 23.392C126.289 23.072 126.022 22.6987 125.873 22.272H125.649C125.201 22.6773 124.678 23.04 124.081 23.36C123.505 23.68 122.844 23.9253 122.097 24.096C121.35 24.288 120.497 24.384 119.537 24.384ZM122.129 20.416C122.534 20.416 122.918 20.3627 123.281 20.256C123.665 20.128 124.006 19.968 124.305 19.776C124.604 19.5627 124.838 19.3173 125.009 19.04C125.18 18.7413 125.265 18.4213 125.265 18.08V16.64C124.006 16.64 122.982 16.736 122.193 16.928C121.425 17.12 120.86 17.376 120.497 17.696C120.134 18.016 119.953 18.3893 119.953 18.816C119.953 19.2427 120.06 19.5733 120.273 19.808C120.486 20.0427 120.753 20.2027 121.073 20.288C121.414 20.3733 121.766 20.416 122.129 20.416ZM135.889 24V7.104H141.105L141.521 9.632H141.745C142.15 8.992 142.651 8.45867 143.249 8.032C143.846 7.584 144.497 7.25333 145.201 7.04C145.926 6.82667 146.662 6.72 147.409 6.72C148.71 6.72 149.787 6.976 150.641 7.488C151.494 7.97867 152.123 8.69333 152.529 9.632H152.753C153.158 8.992 153.649 8.45867 154.225 8.032C154.822 7.584 155.473 7.25333 156.177 7.04C156.881 6.82667 157.595 6.72 158.321 6.72C159.622 6.72 160.699 6.976 161.553 7.488C162.406 7.97867 163.035 8.69333 163.441 9.632C163.867 10.5707 164.081 11.712 164.081 13.056V24H157.713V13.824C157.713 13.4613 157.67 13.1413 157.585 12.864C157.499 12.5653 157.371 12.3093 157.201 12.096C157.03 11.8827 156.817 11.7227 156.561 11.616C156.305 11.488 156.017 11.424 155.697 11.424C155.185 11.424 154.737 11.552 154.353 11.808C153.969 12.0427 153.67 12.3627 153.457 12.768C153.265 13.152 153.169 13.5893 153.169 14.08V24H146.801V13.824C146.801 13.4613 146.758 13.1413 146.673 12.864C146.587 12.5653 146.459 12.3093 146.289 12.096C146.118 11.8827 145.905 11.7227 145.649 11.616C145.393 11.488 145.105 11.424 144.785 11.424C144.273 11.424 143.825 11.552 143.441 11.808C143.078 12.0427 142.79 12.3627 142.577 12.768C142.363 13.152 142.257 13.5893 142.257 14.08V24H135.889Z" fill="white"/>
</svg>
